<svg width="24" height="24" viewBox="0 0 24 24" fill="none" xmlns="http://www.w3.org/2000/svg">
<path d="M10 22V15H8V9.00001C8 8.45001 8.196 7.97934 8.588 7.58801C8.98 7.19667 9.45067 7.00067 10 7.00001H14C14.55 7.00001 15.021 7.19601 15.413 7.58801C15.805 7.98001 16.0007 8.45067 16 9.00001V15H14V22H10ZM12 6.00001C11.45 6.00001 10.9793 5.80434 10.588 5.41301C10.1967 5.02167 10.0007 4.55067 10 4.00001C9.99933 3.44934 10.1953 2.97867 10.588 2.58801C10.9807 2.19734 11.4513 2.00134 12 2.00001C12.5487 1.99867 13.0197 2.19467 13.413 2.58801C13.8063 2.98134 14.002 3.45201 14 4.00001C13.998 4.54801 13.8023 5.01901 13.413 5.41301C13.0237 5.80701 12.5527 6.00267 12 6.00001Z" fill="black"/>
</svg>
