<svg width="18" height="28" viewBox="0 0 18 28" fill="none" xmlns="http://www.w3.org/2000/svg">
<path d="M3.25 0C2.38805 0 1.5614 0.34241 0.951903 0.951903C0.34241 1.5614 0 2.38805 0 3.25V24.75C0 25.612 0.34241 26.4386 0.951903 27.0481C1.5614 27.6576 2.38805 28 3.25 28H14.75C15.612 28 16.4386 27.6576 17.0481 27.0481C17.6576 26.4386 18 25.612 18 24.75V3.25C18 2.38805 17.6576 1.5614 17.0481 0.951903C16.4386 0.34241 15.612 0 14.75 0H3.25ZM7 22H11C11.2652 22 11.5196 22.1054 11.7071 22.2929C11.8946 22.4804 12 22.7348 12 23C12 23.2652 11.8946 23.5196 11.7071 23.7071C11.5196 23.8946 11.2652 24 11 24H7C6.73478 24 6.48043 23.8946 6.29289 23.7071C6.10536 23.5196 6 23.2652 6 23C6 22.7348 6.10536 22.4804 6.29289 22.2929C6.48043 22.1054 6.73478 22 7 22Z" fill="black"/>
</svg>
