<svg width="161" height="161" viewBox="0 0 161 161" fill="none" xmlns="http://www.w3.org/2000/svg">
<path d="M76.9804 145.62L61.6104 161H4.74035L0.110352 156.37V99.5L15.4903 84.12H72.3604L76.9903 88.75V145.62H76.9804Z" fill="#E30613"/>
<path d="M72.3503 84.12L55.0603 101.41V126.65L40.9004 107.19H11.0404V113.31H19.8403V136.64L0.110352 156.37V161H4.74035L26.4804 139.26V113.3H35.2803V137.93H41.8304V118.47L56.0004 137.93H61.6204V104.12L76.9903 88.75V84.12H72.3503Z" fill="white"/>
<path d="M0.110352 62.3299L15.4804 77.6999H72.3503H76.9804V73.0699V16.1999L61.6003 0.819946H4.74035H0.110352V5.44995V62.3299Z" fill="#85878C"/>
<path fill-rule="evenodd" clip-rule="evenodd" d="M44.2607 17.1899H32.0407L15.4607 55.8999H12.7207V61.3499H64.4707V55.8999H61.7407L44.2607 17.1899ZM21.6607 55.8899L35.9807 23.1399H40.4007L55.5107 55.8899H21.6607Z" fill="white"/>
<path d="M160.28 62.3299L144.9 77.6999H88.0304H83.4004V73.0699V16.1999L98.7804 0.819946H155.65H160.28V5.44995V62.3299Z" fill="#85878C"/>
<path fill-rule="evenodd" clip-rule="evenodd" d="M145.2 39.32C145.2 26.53 134.68 16.01 121.89 16.01C109.03 16.01 98.5801 26.53 98.5801 39.32C98.5801 52.17 109.03 62.63 121.89 62.63C134.68 62.63 145.2 52.18 145.2 39.32ZM139.79 39.32C139.79 49.26 131.77 57.28 121.89 57.28C111.95 57.28 103.93 49.26 103.93 39.32C103.93 29.44 111.95 21.42 121.89 21.42C131.77 21.42 139.79 29.44 139.79 39.32Z" fill="white"/>
<path d="M83.4006 145.62L98.7706 161H155.641H160.271V156.37V99.5L144.891 84.12H88.0206H83.3906V88.75V145.62H83.4006Z" fill="#85878C"/>
<path d="M106.47 101.56H99.6602V143.68H105.02V109.15L120.89 129.84H122.92L138.79 108.99V143.68H144.15V101.45H137.34L121.91 121.97L106.47 101.56Z" fill="white"/>
</svg>
