<svg width="128" height="118" viewBox="0 0 128 118" fill="none" xmlns="http://www.w3.org/2000/svg">
<path d="M112.9 106.37L75.3899 23.42L55.45 32.95L96.48 114.23C98.07 117.56 103.02 118.52 107.54 116.35C112.06 114.19 114.49 109.7 112.9 106.37Z" fill="#F79329"/>
<path d="M114.43 0.84994C101.27 -10.0701 83.93 -10.9201 71.46 -8.20006C68.23 -7.50006 65.21 -6.11006 63 -5.15006C59.13 -3.46006 51.26 0.78994 51.26 0.78994L41.42 5.75994C41.17 5.87994 40.95 6.03994 40.71 6.18994C38.61 7.19994 36.19 8.17994 33.87 8.65994C30.99 9.24994 29.13 8.07994 25.79 8.47994C24.19 8.66994 22.52 9.19994 21.11 9.75994C20.62 9.88994 20.13 10.0699 19.65 10.3099L18.65 10.8199C18.1 11.0799 17.75 11.2799 17.75 11.2799L9.00004 15.6899C5.53004 17.4399 3.91004 21.2899 5.41004 24.2399L20.42 53.9699C21.91 56.9199 25.96 57.8999 29.44 56.1499L38.18 51.7299C38.18 51.7299 38.55 51.5599 39.09 51.2699L40.09 50.7599C40.56 50.5199 41.01 50.2299 41.4 49.9199C42.69 49.1099 45.17 42.9199 46.28 41.7499C48.59 39.2899 50.49 42.7399 54.27 42.5999C56.41 42.5199 58.69 41.3699 59.27 41.0699L60.06 40.6699C60.72 40.3499 61.3 40.0499 61.61 39.8899L78.93 31.1399C81.35 29.9199 82.83 27.6999 83.03 25.4499C83.08 24.8499 83.09 22.9299 83.05 22.4699C82.69 17.6499 82.45 11.0899 87.5 8.53994C93.04 5.74994 100.74 7.95994 100.74 7.95994C100.74 7.95994 107.62 10.2199 112.32 6.85994C117.03 3.48994 114.43 0.84994 114.43 0.84994" fill="#78A3AD"/>
<path d="M62.9599 -7.59999C63.7099 -6.54999 64.1699 -5.12999 64.6299 -3.92999C65.0499 -2.83999 64.7999 -1.53999 64.1599 -0.559991C63.4999 0.450009 62.3799 1.34001 61.4099 2.03001C59.4199 3.43001 57.4199 4.68001 55.1799 5.68001C54.0699 6.18001 52.9299 6.45001 51.7499 6.74001C50.6399 7.03001 49.4799 7.40001 48.3099 7.39001C47.2699 7.38001 46.1399 7.51001 45.0999 7.39001C43.7999 7.23001 43.0899 7.27001 42.3199 6.18001C41.6099 5.14001 40.9399 4.16001 40.4399 2.99001C39.7399 1.37001 39.6299 0.24001 40.7999 -1.19999C43.0099 -3.91999 46.5299 -5.49999 49.5999 -6.88999C52.4799 -8.18999 55.7899 -9.23999 58.9099 -9.23999C60.7599 -9.23999 61.8899 -9.10999 62.9599 -7.59999Z" fill="#F79329"/>
<path d="M25.8801 23.35C27.7901 22.05 28.4701 21.28 28.6701 20.21C28.9301 18.77 27.8501 17.03 26.9501 15.84C26.1201 14.74 24.2001 14.9 22.0601 15.88C19.9201 16.86 15.3901 18.91 14.8201 19.26C14.0301 19.74 13.3001 20.31 12.8701 20.97C11.6601 22.82 12.4701 25.4801 14.1301 26.8301C15.1301 27.6401 16.3901 27.61 17.6701 27.25C19.0401 26.86 24.6201 24.2 25.8801 23.35ZM43.9001 19.51C47.3901 19.04 51.5901 17.53 52.7601 17.17C57.1101 15.82 62.5301 13.41 67.5501 10.38C72.7601 7.24005 74.6101 3.74005 77.4801 1.88005C79.7301 0.42005 82.8101 -0.169951 85.2001 -1.24995C85.4601 -1.36995 86.8401 -1.96995 87.0501 -2.68995C87.4101 -3.89995 85.8301 -4.32995 83.3201 -4.39995C82.1301 -4.42995 76.7601 -4.40995 71.6701 -2.89995C71.3801 -2.81995 70.1501 -2.39995 69.8301 -1.47995C68.4001 2.66005 67.3301 4.73005 63.1901 7.09005C59.4101 9.24005 55.2601 11.1801 50.0501 12.6C44.8401 14.02 44.1501 11.3601 41.5501 12.4401C40.9401 12.6901 40.1601 13.04 39.5001 13.39C38.0501 14.16 38.2601 15.1701 38.5601 15.7701C39.0301 16.7101 39.7301 17.8901 40.0501 18.5201C40.6801 19.7701 42.8401 19.65 43.9001 19.51Z" fill="white"/>
</svg>
