<svg width="16" height="16" viewBox="0 0 16 16" fill="none" xmlns="http://www.w3.org/2000/svg">
<path d="M5.15691 13.0691L9.76791 8.38405C9.86904 8.28183 9.92576 8.14384 9.92576 8.00005C9.92576 7.85626 9.86904 7.71827 9.76791 7.61605L5.15791 2.93005C5.05731 2.82695 5.001 2.6886 5.001 2.54455C5.001 2.4005 5.05731 2.26215 5.15791 2.15905C5.20729 2.1084 5.26631 2.06815 5.33148 2.04067C5.39666 2.01318 5.46668 1.99902 5.53741 1.99902C5.60815 1.99902 5.67817 2.01318 5.74334 2.04067C5.80852 2.06815 5.86754 2.1084 5.91691 2.15905L10.5269 6.84305C10.8298 7.15157 10.9996 7.56667 10.9996 7.99905C10.9996 8.43143 10.8298 8.84653 10.5269 9.15505L5.91691 13.8391C5.86752 13.8899 5.80844 13.9302 5.74317 13.9578C5.6779 13.9854 5.60777 13.9996 5.53691 13.9996C5.46606 13.9996 5.39592 13.9854 5.33065 13.9578C5.26538 13.9302 5.20631 13.8899 5.15691 13.8391C5.05631 13.7359 5 13.5976 5 13.4536C5 13.3095 5.05631 13.1712 5.15691 13.0681" fill="black"/>
</svg>
