<svg width="256" height="256" viewBox="0 0 256 256" fill="none" xmlns="http://www.w3.org/2000/svg">
<path d="M208 76H124V32C124.001 31.2084 123.766 30.4344 123.327 29.776C122.887 29.1177 122.262 28.6045 121.531 28.3015C120.8 27.9985 119.995 27.9193 119.219 28.0739C118.442 28.2285 117.729 28.6099 117.17 29.17L21.17 125.17C20.7981 125.541 20.503 125.983 20.3017 126.468C20.1004 126.954 19.9968 127.474 19.9968 128C19.9968 128.526 20.1004 129.046 20.3017 129.532C20.503 130.017 20.7981 130.458 21.17 130.83L117.17 226.83C117.729 227.39 118.442 227.771 119.219 227.926C119.995 228.081 120.8 228.001 121.531 227.698C122.262 227.395 122.887 226.882 123.327 226.224C123.766 225.566 124.001 224.792 124 224V180H208C211.183 180 214.235 178.736 216.485 176.485C218.736 174.235 220 171.183 220 168V88C220 84.8174 218.736 81.7651 216.485 79.5147C214.235 77.2643 211.183 76 208 76ZM212 168C212 169.061 211.579 170.078 210.828 170.828C210.078 171.579 209.061 172 208 172H120C118.939 172 117.922 172.421 117.172 173.172C116.421 173.922 116 174.939 116 176V214.34L29.66 128L116 41.66V80C116 81.0608 116.421 82.0783 117.172 82.8284C117.922 83.5786 118.939 84 120 84H208C209.061 84 210.078 84.4214 210.828 85.1715C211.579 85.9217 212 86.9391 212 88V168Z" fill="black"/>
</svg>
