<svg width="256" height="256" viewBox="0 0 256 256" fill="none" xmlns="http://www.w3.org/2000/svg">
<path d="M234.83 125.17L138.83 29.17C138.271 28.6099 137.558 28.2285 136.781 28.0739C136.005 27.9193 135.2 27.9985 134.469 28.3015C133.738 28.6045 133.113 29.1177 132.673 29.776C132.234 30.4344 131.999 31.2084 132 32V76H48C44.8174 76 41.7652 77.2643 39.5147 79.5147C37.2643 81.7651 36 84.8174 36 88V168C36 171.183 37.2643 174.235 39.5147 176.485C41.7652 178.736 44.8174 180 48 180H132V224C131.999 224.792 132.233 225.566 132.673 226.225C133.113 226.884 133.738 227.397 134.47 227.7C135.201 228.003 136.006 228.081 136.782 227.927C137.558 227.772 138.271 227.39 138.83 226.83L234.83 130.83C235.202 130.458 235.497 130.017 235.698 129.532C235.9 129.046 236.003 128.526 236.003 128C236.003 127.474 235.9 126.954 235.698 126.468C235.497 125.983 235.202 125.541 234.83 125.17ZM140 214.34V176C140 174.939 139.579 173.922 138.828 173.172C138.078 172.421 137.061 172 136 172H48C46.9391 172 45.9217 171.579 45.1716 170.828C44.4214 170.078 44 169.061 44 168V88C44 86.9391 44.4214 85.9217 45.1716 85.1715C45.9217 84.4214 46.9391 84 48 84H136C137.061 84 138.078 83.5786 138.828 82.8284C139.579 82.0783 140 81.0608 140 80V41.66L226.34 128L140 214.34Z" fill="black"/>
</svg>
