<svg width="24" height="24" viewBox="0 0 24 24" fill="none" xmlns="http://www.w3.org/2000/svg">
<path d="M11 18H7.94099C7.64399 16.727 6.30399 15.686 5.75399 15C4.81218 13.8233 4.22194 12.4045 4.05125 10.907C3.88057 9.40947 4.13639 7.89421 4.78924 6.53575C5.4421 5.17728 6.46543 4.03088 7.74135 3.22859C9.01727 2.4263 10.4939 2.00077 12.0011 2.00101C13.5083 2.00125 14.9847 2.42725 16.2604 3.22995C17.5361 4.03265 18.559 5.17939 19.2114 6.53806C19.8639 7.89673 20.1192 9.41207 19.948 10.9095C19.7769 12.407 19.1862 13.8256 18.244 15.002C17.694 15.687 16.356 16.728 16.059 18H13V13H11V18ZM16 20V21C16 21.5304 15.7893 22.0391 15.4142 22.4142C15.0391 22.7893 14.5304 23 14 23H9.99999C9.46956 23 8.96085 22.7893 8.58578 22.4142C8.2107 22.0391 7.99999 21.5304 7.99999 21V20H16Z" fill="black"/>
</svg>
