<svg width="21" height="22" viewBox="0 0 21 22" fill="none" xmlns="http://www.w3.org/2000/svg">
<g clip-path="url(#clip0)">
<path d="M20.7853 12.7363C21.4685 7.21626 20.4568 3.73155 18.6317 2.15556L18.6326 2.1547C15.687 -0.537507 5.73853 -0.935907 2.21444 2.27533C0.631819 3.84575 0.0743004 6.15114 0.0130003 9.00477C-0.0482999 11.8597 -0.120786 17.2072 5.07317 18.6578H5.07809L5.07317 20.8735C5.07317 20.8735 5.03782 21.7712 5.63561 21.9515C6.31886 22.164 6.6285 21.7471 8.75431 19.3112C12.3093 19.607 15.0391 18.9291 15.3492 18.8304C16.0669 18.5994 20.1284 18.0838 20.7853 12.7363ZM9.10422 17.7524C9.10422 17.7524 6.85446 20.4442 6.15465 21.1431C5.92556 21.3702 5.67454 21.3492 5.67812 20.8984C5.67812 20.6026 5.69512 17.2205 5.69512 17.2205C1.2918 16.0098 1.55132 11.4561 1.5992 9.07389C1.64707 6.69079 2.10123 4.73914 3.44133 3.42503C6.53319 0.643525 15.2548 1.2656 17.4773 3.26919C20.1937 5.57973 19.2268 12.1083 19.2326 12.3306C18.6742 16.7946 15.3828 17.0775 14.7778 17.2707C14.5197 17.3531 12.1187 17.9456 9.10422 17.7524Z" fill="#8E24AA"/>
<path d="M10.3495 3.94751C9.98214 3.94751 9.98214 4.49703 10.3495 4.50175C13.2006 4.52279 15.5488 6.42978 15.5748 9.92737C15.5748 10.2966 16.1381 10.2919 16.1332 9.92265H16.1323C16.1014 6.15374 13.5375 3.96855 10.3495 3.94751Z" fill="#8E24AA"/>
<path d="M14.1 9.34717C14.0915 9.71165 14.6535 9.72925 14.6584 9.36005C14.7054 7.28176 13.3698 5.5701 10.86 5.38979C10.4927 5.36403 10.4542 5.91827 10.8211 5.94403C12.9975 6.10244 14.1438 7.52732 14.1 9.34717Z" fill="#8E24AA"/>
<path d="M13.4986 11.7112C13.027 11.4493 12.5469 11.6125 12.3482 11.8696L11.933 12.3852C11.7222 12.6471 11.3276 12.6123 11.3276 12.6123C8.45048 11.8825 7.68132 8.99366 7.68132 8.99366C7.68132 8.99366 7.64597 8.60256 7.90952 8.39305L8.429 7.98091C8.68852 7.783 8.85274 7.3069 8.58829 6.83895C7.88178 5.61456 7.40748 5.19212 7.16586 4.86799C6.91216 4.56318 6.53004 4.49449 6.13316 4.70056H6.12466C5.29912 5.16378 4.39483 6.03142 4.68433 6.92438C5.17786 7.86586 6.08483 10.8672 8.97489 13.1348C10.3333 14.2072 12.4829 15.3062 13.3952 15.56L13.4037 15.5728C14.3031 15.8605 15.1774 14.9594 15.6441 14.1432V14.1368C15.8512 13.7423 15.7823 13.3683 15.4799 13.1241C14.9438 12.6218 14.1344 12.0675 13.4986 11.7112Z" fill="#8E24AA"/>
<path d="M11.2533 7.43446C12.1706 7.48555 12.6153 7.94534 12.6632 8.88982C12.6802 9.25903 13.2386 9.23327 13.2216 8.86407C13.1603 7.63152 12.4905 6.94462 11.2837 6.88022C10.9164 6.85919 10.8819 7.41343 11.2533 7.43446Z" fill="#8E24AA"/>
</g>
<defs>
<clipPath id="clip0">
<rect width="21" height="22" fill="white"/>
</clipPath>
</defs>
</svg>
