<svg width="21" height="12" viewBox="0 0 21 12" fill="none" xmlns="http://www.w3.org/2000/svg">
<path fill-rule="evenodd" clip-rule="evenodd" d="M10.4419 11.5914H11.6199C11.6199 11.5914 11.9757 11.5524 12.1574 11.3565C12.3246 11.1767 12.3192 10.8391 12.3192 10.8391C12.3192 10.8391 12.2962 9.25842 13.0298 9.02566C13.753 8.79637 14.6817 10.5533 15.666 11.2289C16.4103 11.7402 16.9759 11.6281 16.9759 11.6281L19.6077 11.5914C19.6077 11.5914 20.9845 11.5066 20.3317 10.4241C20.2782 10.3356 19.9515 9.62335 18.3749 8.15988C16.7246 6.62818 16.9456 6.87593 18.9335 4.22643C20.1441 2.61286 20.6281 1.62776 20.477 1.20584C20.3328 0.80399 19.4424 0.910206 19.4424 0.910206L16.479 0.928667C16.479 0.928667 16.2594 0.898701 16.0964 0.996088C15.9373 1.0916 15.8348 1.3142 15.8348 1.3142C15.8348 1.3142 15.3658 2.56283 14.7403 3.62472C13.4207 5.86541 12.8931 5.98367 12.6775 5.84454C12.1758 5.52028 12.301 4.54187 12.301 3.84678C12.301 1.67539 12.6304 0.770012 11.6597 0.535642C11.3376 0.457787 11.1006 0.406418 10.2768 0.398124C9.21946 0.387155 8.32452 0.401335 7.81779 0.649617C7.48068 0.814692 7.22063 1.18257 7.37901 1.2037C7.57486 1.22992 8.01845 1.3233 8.25362 1.64355C8.55728 2.05664 8.54658 2.98448 8.54658 2.98448C8.54658 2.98448 8.72102 5.54061 8.13911 5.85819C7.73967 6.07597 7.19173 5.63131 6.01534 3.5985C5.41256 2.55721 4.95746 1.40623 4.95746 1.40623C4.95746 1.40623 4.86971 1.19113 4.71319 1.07608C4.52324 0.936693 4.25783 0.89228 4.25783 0.89228L1.44192 0.910741C1.44192 0.910741 1.01919 0.922513 0.864019 1.10632C0.725965 1.26979 0.853049 1.60796 0.853049 1.60796C0.853049 1.60796 3.05762 6.7657 5.55382 9.3649C7.84267 11.7479 10.4419 11.5914 10.4419 11.5914Z" fill="black"/>
</svg>
