<svg width="30" height="30" fill="none" xmlns="http://www.w3.org/2000/svg"><g clip-path="url(#clip0_1373_3194)"><path d="M6.81 0c-.66.03-1.53.09-1.92.18-.6.12-1.17.3-1.62.54-.57.27-1.05.63-1.47 1.05-.45.45-.81.93-1.08 1.5C.48 3.72.3 4.29.18 4.89.09 5.28.03 6.15.03 6.81 0 7.08 0 7.44 0 7.62v15.57c.03.66.09 1.53.18 1.92.12.6.3 1.17.54 1.62.27.57.63 1.05 1.05 1.47.45.45.93.81 1.5 1.08.45.24 1.02.42 1.62.54.39.09 1.26.15 1.92.15.27.03.63.03.81.03h15.57c.66-.03 1.53-.09 1.92-.18.6-.12 1.17-.3 1.62-.54.57-.27 1.05-.63 1.47-1.05.45-.45.81-.93 1.08-1.5.24-.45.42-1.02.54-1.62.09-.39.15-1.26.15-1.92.03-.27.03-.63.03-.81V6.81c-.03-.66-.09-1.53-.18-1.92-.12-.6-.3-1.17-.54-1.62-.27-.57-.63-1.05-1.05-1.47-.45-.45-.93-.81-1.5-1.08-.45-.24-1.02-.42-1.62-.54-.39-.09-1.26-.15-1.92-.15-.27-.03-.63-.03-.81-.03H6.81z" fill="url(#paint0_linear_1373_3194)"/><path fill-rule="evenodd" clip-rule="evenodd" d="M20.2 16.975c-.267-.134-1.58-.78-1.826-.87-.245-.089-.423-.133-.6.134-.18.268-.691.87-.847 1.048-.156.178-.312.2-.579.066-.267-.133-1.128-.415-2.149-1.325-.794-.709-1.33-1.583-1.486-1.85-.156-.268-.017-.413.117-.546.12-.12.267-.312.4-.468.134-.156.179-.267.268-.446.09-.178.045-.334-.022-.468-.067-.133-.601-1.448-.824-1.983-.217-.52-.437-.45-.601-.458a10.73 10.73 0 00-.512-.01.982.982 0 00-.713.334c-.245.268-.935.914-.935 2.229s.957 2.585 1.09 2.763c.135.178 1.885 2.876 4.566 4.033.637.276 1.135.44 1.523.563.64.203 1.222.175 1.683.106.513-.077 1.58-.646 1.803-1.27.223-.624.223-1.159.156-1.27-.067-.112-.245-.179-.512-.312zm-4.875 6.654h-.004a8.876 8.876 0 01-4.524-1.238l-.324-.193-3.364.882.898-3.278-.212-.337a8.864 8.864 0 01-1.359-4.728c.002-4.9 3.99-8.885 8.892-8.885a8.83 8.83 0 016.284 2.606 8.831 8.831 0 012.6 6.286c-.001 4.9-3.988 8.885-8.887 8.885zm7.564-16.448a10.626 10.626 0 00-7.564-3.135c-5.895 0-10.692 4.796-10.694 10.69a10.662 10.662 0 001.427 5.344l-1.517 5.54 5.669-1.486c1.562.851 3.32 1.3 5.11 1.3h.005c5.893 0 10.691-4.795 10.693-10.69a10.624 10.624 0 00-3.129-7.563z" fill="#fff"/></g><defs><linearGradient id="paint0_linear_1373_3194" x1="15" y1="30" x2="15" y2="0" gradientUnits="userSpaceOnUse"><stop stop-color="#25CF43"/><stop offset="1" stop-color="#61FD7D"/></linearGradient><clipPath id="clip0_1373_3194"><path fill="#fff" d="M0 0h30v30H0z"/></clipPath></defs></svg>