<svg width="448" height="512" viewBox="0 0 448 512" fill="none" xmlns="http://www.w3.org/2000/svg">
<rect width="448" height="512" fill="#2D3134"/>
<path d="M92.1 254.6C92.1 279.5 99.1 303.8 112.3 324.7L115.4 329.7L102.1 378.3L152 365.2L156.8 368.1C177 380.1 200.2 386.5 223.9 386.5H224C296.6 386.5 357.3 327.4 357.3 254.7C357.3 219.5 342.1 186.4 317.2 161.5C292.2 136.5 259.2 122.8 224 122.8C151.3 122.8 92.2 181.9 92.1 254.6ZM274.8 330C262.2 331.9 252.4 330.9 227.3 320.1C190.5 304.2 165.5 268.6 160.4 261.4C160 260.8 159.7 260.5 159.6 260.3C157.6 257.7 143.4 238.8 143.4 219.3C143.4 200.9 152.4 191.4 156.6 187C156.9 186.7 157.1 186.5 157.3 186.2C160.9 182.2 165.2 181.2 167.9 181.2C170.5 181.2 173.2 181.2 175.5 181.3H176.3C178.6 181.3 181.5 181.3 184.4 188.1C185.6 191 187.4 195.4 189.3 199.9C192.6 207.9 196 216.2 196.6 217.5C197.6 219.5 198.3 221.8 196.9 224.4C193.5 231.2 190 234.8 187.6 237.4C184.5 240.6 183.1 242.1 185.3 246C200.6 272.3 215.9 281.4 239.2 293.1C243.2 295.1 245.5 294.8 247.8 292.1C250.1 289.5 257.7 280.5 260.3 276.6C262.9 272.6 265.6 273.3 269.2 274.6C272.8 275.9 292.3 285.5 296.3 287.5C297.1 287.9 297.8 288.2 298.4 288.5C301.2 289.9 303.1 290.8 303.9 292.1C304.8 294 304.8 302 301.5 311.2C298.2 320.5 282.4 328.9 274.8 330ZM448 96C448 60.7 419.3 32 384 32H64C28.7 32 0 60.7 0 96V416C0 451.3 28.7 480 64 480H384C419.3 480 448 451.3 448 416V96ZM148.1 393.9L64 416L86.5 333.8C72.6 309.8 65.3 282.5 65.3 254.5C65.4 167.1 136.5 96 223.9 96C266.3 96 306.1 112.5 336.1 142.5C366 172.5 384 212.3 384 254.7C384 342.1 311.3 413.2 223.9 413.2C197.3 413.2 171.2 406.5 148.1 393.9Z" fill="white"/>
</svg>
